<?xml version="1.0" standalone="no"?>
<!DOCTYPE svg PUBLIC "-//W3C//DTD SVG 1.1//EN" "http://www.w3.org/Graphics/SVG/1.1/DTD/svg11.dtd" >
<svg xmlns="http://www.w3.org/2000/svg" xmlns:xlink="http://www.w3.org/1999/xlink" version="1.1">
<metadata></metadata>
<defs>
<font id="public_sanssemibold_italic" horiz-adv-x="1413" >
<font-face units-per-em="2048" ascent="1597" descent="-451" />
<missing-glyph horiz-adv-x="473" />
<glyph unicode="&#xfb01;" horiz-adv-x="1341" d="M104 883l27 176h197l24 158q19 128 96.5 196t206.5 68h217l-24 -170h-141q-57 0 -83.5 -30t-35.5 -99l-19 -123h232l-27 -176h-227l-127 -883h-246l129 883h-199zM864 0l156 1059h244l-154 -1059h-246zM1042 1251l35 236h254l-35 -236h-254z" />
<glyph unicode="&#xfb02;" horiz-adv-x="1398" d="M104 883l27 176h197l24 158q19 128 96.5 196t206.5 68h217l-24 -170h-141q-57 0 -83.5 -30t-35.5 -99l-19 -123h232l-27 -176h-227l-127 -883h-246l129 883h-199zM888 222q2 29 7 65l180 1235h242l-176 -1209q-21 -138 92 -149l49 -2l-22 -156q-61 -22 -111 -22 q-56 0 -99.5 9t-72 24t-48 38.5t-29 48t-12 57t-0.5 61.5z" />
<glyph horiz-adv-x="53" />
<glyph horiz-adv-x="53" />
<glyph horiz-adv-x="682" />
<glyph unicode="&#xd;" horiz-adv-x="483" />
<glyph unicode=" "  horiz-adv-x="473" />
<glyph unicode="&#x09;" horiz-adv-x="473" />
<glyph unicode="&#xa0;" horiz-adv-x="473" />
<glyph unicode="!" horiz-adv-x="542" d="M43 0l41 283h274l-41 -283h-274zM166 420l86 1061h289l-217 -1061h-158z" />
<glyph unicode="&#x22;" horiz-adv-x="925" d="M248 950l12 531h264l-147 -531h-129zM657 950l11 531h264l-146 -531h-129z" />
<glyph unicode="#" horiz-adv-x="1208" d="M76 469v137h256l43 283h-234v137h254l70 459l135 -17l-65 -442h286l70 459l139 -17l-65 -442h219v-137h-242l-41 -283h217v-137h-237l-72 -473l-139 18l67 455h-286l-70 -473l-137 18l67 455h-235zM471 606h287l43 283h-287z" />
<glyph unicode="$" horiz-adv-x="1331" d="M92 399l256 9q10 -111 86 -168.5t203 -57.5q115 0 202.5 59t100.5 150q12 87 -32 136t-152 79l-230 60q-161 38 -239.5 135.5t-55.5 255.5q24 174 160.5 290.5t333.5 143.5l31 207h217l-31 -207q175 -30 264.5 -148t67.5 -276l-250 -8q0 119 -50.5 178t-166.5 59 q-122 0 -208 -57.5t-101 -155.5q-9 -73 31.5 -114.5t160.5 -77.5l221 -64q339 -95 289 -434q-23 -162 -154.5 -272t-330.5 -135l-29 -191h-215l29 191q-200 22 -307 126t-101 287z" />
<glyph unicode="%" horiz-adv-x="1757" d="M178 1079q26 184 139.5 304t255.5 120q144 0 222.5 -119.5t52.5 -304.5q-26 -183 -136.5 -300t-254.5 -117q-146 0 -225 117t-54 300zM344 -8l483 708l740 797l-484 -706zM350 1079q-19 -133 12 -209.5t111 -76.5t132 75.5t71 210.5q19 137 -12 215t-109 78t-132 -78.5 t-73 -214.5zM961 399q26 184 138 304t255 120t221.5 -120t52.5 -304t-137 -301.5t-256 -117.5q-144 0 -222.5 118t-51.5 301zM1130 397q-18 -130 14 -207t107 -77q78 0 132 77t73 207q18 135 -14 215t-109 80q-75 0 -128.5 -80.5t-74.5 -214.5z" />
<glyph unicode="&#x26;" horiz-adv-x="1482" d="M70 371q21 145 120.5 249.5t296.5 204.5q-76 102 -106.5 176.5t-18.5 165.5q22 144 148 240t301 96t282.5 -89t86.5 -230q-15 -95 -107 -197t-274 -201l211 -321q119 171 159 356h250q-11 -32 -24.5 -63t-31 -63.5t-31 -57t-37 -59.5t-35.5 -53.5t-40 -55.5t-37 -49.5 t-40 -52.5t-37 -48l217 -319h-281l-106 154q-229 -164 -475 -164q-218 0 -317.5 104t-73.5 277zM346 383q-6 -91 53.5 -146t149.5 -55q68 0 147.5 32.5t141.5 88.5l-252 377q-232 -128 -240 -297zM608 1184q-15 -105 74 -226l33 -43q130 78 184 137.5t64 123.5 q11 85 -38 128.5t-128 41.5q-76 -1 -128 -48t-61 -114z" />
<glyph unicode="'" horiz-adv-x="516" d="M248 950l10 531h264l-145 -531h-129z" />
<glyph unicode="(" horiz-adv-x="645" d="M145 625q35 245 144.5 478.5t269.5 432.5h170q-293 -454 -360 -913q-31 -239 -9.5 -449t95.5 -448h-170q-101 239 -138.5 446.5t-1.5 452.5z" />
<glyph unicode=")" horiz-adv-x="653" d="M-84 -276q294 455 360 913q31 239 10.5 449t-93.5 448h169q100 -239 137 -446.5t3 -452.5q-37 -246 -146 -479t-268 -432h-172z" />
<glyph unicode="*" horiz-adv-x="894" d="M143 1143l54 149l272 -114l-20 303h169l-24 -305l276 120l48 -149l-279 -84l199 -240l-140 -98l-166 270l-167 -276l-140 96l205 246z" />
<glyph unicode="+" horiz-adv-x="1140" d="M139 651l27 187h360l54 372h180l-53 -372h356l-27 -187h-358l-53 -370h-181l54 370h-359z" />
<glyph unicode="," horiz-adv-x="528" d="M-20 -272l151 266l-94 8l39 260h266l-35 -229l-229 -305h-98z" />
<glyph unicode="-" horiz-adv-x="778" d="M109 434l26 187h522l-26 -187h-522z" />
<glyph unicode="." horiz-adv-x="507" d="M33 0l43 287h274l-43 -287h-274z" />
<glyph unicode="/" horiz-adv-x="737" d="M-57 -57l719 1538h178l-721 -1538h-176z" />
<glyph unicode="0" horiz-adv-x="1232" d="M115 735q55 370 225 569t418 199q249 0 361 -198.5t59 -567.5q-55 -368 -222.5 -561.5t-418.5 -193.5q-252 0 -363.5 193.5t-58.5 559.5zM373 735q-42 -289 6 -419t188 -130q139 0 224 129.5t127 419.5q42 296 -6 430.5t-185 134.5q-138 0 -225 -135.5t-129 -429.5z" />
<glyph unicode="1" horiz-adv-x="831" d="M172 1141l21 147q180 0 265.5 48t108.5 145h166l-217 -1481h-250l168 1141h-262z" />
<glyph unicode="2" horiz-adv-x="1243" d="M49 0l19 133l10 70q12 84 48.5 156t87.5 124t113.5 97t129.5 81t134 70t128 69t110 72.5t82 86.5t41 106q14 101 -44 163t-171 62q-121 0 -209.5 -73t-121.5 -205h-238q36 213 195.5 351t412.5 138q229 0 345.5 -119t88.5 -317q-16 -107 -69 -192.5t-126 -141.5 t-157.5 -102.5t-168.5 -86t-154.5 -80.5t-119.5 -98t-59 -128l-2 -23h733l-32 -213h-1006z" />
<glyph unicode="3" horiz-adv-x="1253" d="M63 442h236q1 -127 69.5 -192.5t186.5 -65.5q140 0 232 65t110 171q15 111 -60.5 175t-211.5 67l-131 4l28 202l123 6q125 3 213.5 68t102.5 160q12 86 -55 143.5t-189 57.5q-116 0 -204.5 -66.5t-113.5 -200.5h-237q21 147 107 254t210 159t271 52q240 0 370.5 -101 t102.5 -290q-15 -112 -93 -197t-219 -133q130 -39 198.5 -131.5t47.5 -232.5q-20 -137 -112 -238t-227.5 -150t-297.5 -48q-242 2 -363.5 124.5t-93.5 337.5z" />
<glyph unicode="4" horiz-adv-x="1249" d="M45 350l31 213l786 918h244l-133 -918h225l-33 -213h-225l-51 -350h-236l52 350h-660zM305 563h430l88 608z" />
<glyph unicode="5" horiz-adv-x="1304" d="M57 340l213 106q87 -264 322 -264q138 0 232.5 80t113.5 213q19 125 -53 205t-199 80q-80 0 -144 -24t-145 -93q-12 -6 -16 -6t-14 6l-174 78l176 760h886l-41 -209h-679l-93 -412q163 107 336 107q103 0 187 -32t142 -92t82.5 -153t8.5 -207q-35 -232 -200.5 -367.5 t-411.5 -135.5q-203 0 -346.5 100t-182.5 260z" />
<glyph unicode="6" horiz-adv-x="1257" d="M113 723q55 364 238 575t456 211q128 0 228 -47t156 -141t48 -219h-225q-12 99 -72 153t-160 54q-166 0 -270 -147.5t-123 -407.5q58 91 158.5 144.5t210.5 53.5q215 0 327.5 -124.5t81.5 -335.5q-32 -221 -197 -360.5t-397 -139.5q-263 0 -386 195.5t-74 535.5zM373 532 q-23 -158 38 -253t183 -95q115 0 203 83t108 214q20 133 -41.5 206t-185.5 73q-102 0 -197.5 -70.5t-107.5 -157.5z" />
<glyph unicode="7" horiz-adv-x="1177" d="M180 1272l31 209h1034l-31 -209q-139 -160 -289 -397t-263 -476.5t-146 -398.5h-266q28 105 83.5 242.5t140 307.5t210.5 362t270 360h-774z" />
<glyph unicode="8" horiz-adv-x="1280" d="M63 416q18 125 119.5 232t210.5 130q-92 46 -138 125t-30 191q27 192 182 300.5t375 108.5q221 0 344 -108t95 -301q-18 -112 -87 -191.5t-173 -124.5q102 -23 171.5 -130t51.5 -232q-29 -195 -199 -310.5t-424 -115.5t-390.5 116t-107.5 310zM326 420 q-15 -109 56 -174.5t208 -65.5q136 0 226.5 65.5t107.5 174.5q15 110 -57 180t-208 70q-135 0 -226.5 -70t-106.5 -180zM473 1100q-17 -105 44 -163t175 -58q112 0 190 58.5t93 162.5q15 106 -46 168.5t-171 62.5q-112 0 -192 -63.5t-93 -167.5z" />
<glyph unicode="9" horiz-adv-x="1220" d="M76 395h219q8 -94 66 -149.5t153 -55.5q171 0 281 138t135 426q-54 -100 -151 -159.5t-216 -59.5q-208 0 -318.5 127.5t-80.5 343.5q31 223 185.5 362t377.5 139q250 0 366.5 -195.5t69.5 -535.5q-54 -383 -227 -584.5t-440 -201.5q-122 0 -219 48.5t-152 141.5t-49 215z M412 1018q-17 -131 39.5 -206t173.5 -75q64 0 130 32.5t112 86t55 111.5q23 158 -37 253t-180 95q-109 0 -191 -82.5t-102 -214.5z" />
<glyph unicode=":" horiz-adv-x="512" d="M33 6l43 283h274l-41 -283h-276zM141 741l41 285h277l-43 -285h-275z" />
<glyph unicode=";" horiz-adv-x="532" d="M-12 -305l166 305h-99l41 285h277l-37 -252l-246 -338h-102zM158 733l43 289h274l-41 -289h-276z" />
<glyph unicode="&#x3c;" horiz-adv-x="1124" d="M133 598l31 213l928 358l-33 -221l-635 -243l563 -240l-31 -219z" />
<glyph unicode="=" horiz-adv-x="1144" d="M102 385l27 186h897l-29 -184zM170 848l29 186h895l-27 -186h-897z" />
<glyph unicode="&#x3e;" horiz-adv-x="1124" d="M84 246l33 219l635 240l-566 243l33 221l823 -358l-32 -213z" />
<glyph unicode="?" horiz-adv-x="1067" d="M125 1184q86 152 225 234.5t309 82.5q203 0 314.5 -99.5t89.5 -252.5q-10 -69 -40 -129.5t-70.5 -106t-88 -88.5t-95 -85.5t-88 -86.5t-70.5 -102.5t-40 -124.5h-198q11 78 39.5 147t66 120.5t80.5 98t85 87t77.5 80t61 85t32.5 93.5q13 85 -38.5 135.5t-145.5 50.5 q-87 0 -172.5 -55t-130.5 -142zM272 0l43 283h275l-43 -283h-275z" />
<glyph unicode="@" horiz-adv-x="1642" d="M96 522q24 161 101 306t192.5 254t273.5 173t332 64q105 0 198.5 -23t174.5 -73.5t136 -123.5t77.5 -181.5t3.5 -239.5q-34 -228 -159.5 -372t-290.5 -144q-141 0 -166 100q-3 8 -6 10t-6 0t-11 -10q-119 -129 -278 -129q-121 0 -188.5 98t-43.5 256q19 124 81 229 t159.5 168.5t208.5 63.5q137 0 196 -112q3 -5 8.5 -3t8.5 11l20 53h148l-138 -446q-44 -140 46 -140q81 0 154 95.5t97 259.5q16 109 -1 196.5t-58.5 144.5t-105 95.5t-135.5 55t-154 16.5q-151 0 -278.5 -52t-215.5 -142.5t-144.5 -207t-76.5 -250.5q-39 -276 100 -442 t426 -166q64 0 116.5 8.5t100 28.5t78.5 37.5t82 50.5l64 -109q-95 -70 -221.5 -112.5t-268.5 -42.5q-172 0 -305 58.5t-212 160.5t-110.5 237.5t-9.5 290.5zM621 502q-14 -94 15 -151.5t99 -57.5q84 0 158 76.5t100 179.5q27 108 -9 173.5t-110 65.5q-91 0 -163.5 -82.5 t-89.5 -203.5z" />
<glyph unicode="A" d="M-10 0l729 1481h262l293 -1481h-246l-70 371h-540l-182 -371h-246zM508 594h422l-115 645z" />
<glyph unicode="B" horiz-adv-x="1351" d="M102 0l217 1481h494q269 0 389 -99q98 -80 97 -220q0 -32 -5 -68q-18 -119 -87.5 -200t-213.5 -136q240 -63 239 -286q0 -35 -5 -73q-29 -203 -179 -301t-434 -98h-512zM379 199h268q149 0 235 57t101 164q3 22 3 41q0 83 -57 129q-71 58 -198 57h-287zM473 850h287 q69 0 128.5 19t106.5 68.5t58 123.5q3 22 3 41q0 79 -55 125q-69 57 -200 57h-264z" />
<glyph unicode="C" horiz-adv-x="1415" d="M147 748q51 351 247 552t487 201q233 0 369 -135q127 -127 127 -316q0 -13 -1 -26l-258 -6q-3 126 -72.5 200t-201.5 74q-349 0 -428 -547q-15 -103 -15 -186q1 -144 45 -232q70 -139 244 -139q118 0 211 78t135 205l256 -10q-27 -102 -78.5 -187t-127.5 -152 t-183.5 -104.5t-236.5 -37.5q-194 0 -323.5 95t-179.5 268q-30 103 -30 227q0 84 14 178z" />
<glyph unicode="D" d="M102 0l220 1481q266 0 385 -2q379 -7 530 -193q113 -139 113 -371q0 -78 -13 -167q-54 -362 -268.5 -555t-591.5 -193h-375zM383 207h129q230 0 379 129t190 412q11 76 11 141q0 173 -77 263q-106 124 -343 124h-135z" />
<glyph unicode="E" horiz-adv-x="1269" d="M102 0l220 1481h942l-33 -213h-696l-60 -416h612l-30 -211h-615l-61 -424l713 -2l-33 -215h-959z" />
<glyph unicode="F" horiz-adv-x="1196" d="M102 0l217 1481h934l-32 -211h-684l-62 -426h602l-30 -209h-603l-92 -635h-250z" />
<glyph unicode="G" horiz-adv-x="1492" d="M145 735q51 353 255.5 559.5t494.5 206.5q115 0 212.5 -39.5t160 -105t94.5 -152.5q24 -67 24 -137q0 -21 -2 -41l-262 -8q-3 118 -74 193t-192 75q-168 0 -287 -136t-157 -402q-12 -93 -12 -169q0 -46 4 -85q12 -104 56 -169t106 -94.5t143 -29.5q70 0 132.5 27 t106 69.5t73 91t40.5 96.5l24 111h-315l27 176l571 -4l-113 -768h-174l31 209q-179 -229 -455 -229q-287 0 -426 204q-101 149 -101 371q0 84 15 180z" />
<glyph unicode="H" horiz-adv-x="1439" d="M102 0l220 1481h245l-90 -611h590l88 611h246l-217 -1481h-246l94 657h-588l-96 -657h-246z" />
<glyph unicode="I" horiz-adv-x="604" d="M102 0l217 1481h246l-217 -1481h-246z" />
<glyph unicode="J" horiz-adv-x="798" d="M-20 18l43 232q7 -2 28.5 -10t35.5 -12.5t38.5 -8.5t48.5 -4q95 0 139 53.5t62 182.5l151 1030h244l-160 -1098q-15 -103 -40.5 -174t-71 -124.5t-115.5 -79t-170 -25.5q-116 0 -233 38z" />
<glyph unicode="K" horiz-adv-x="1390" d="M102 0l220 1481h253l-104 -719l670 719h282l-528 -574l362 -907h-270l-299 723l-264 -279l-66 -444h-256z" />
<glyph unicode="L" horiz-adv-x="1126" d="M102 0l220 1481h245l-184 -1266h639l-31 -215h-889z" />
<glyph unicode="M" horiz-adv-x="1794" d="M102 0l217 1481h353l200 -1133l535 1133h348l-215 -1481h-250l170 1161l-538 -1161h-203l-199 1153l-170 -1153h-248z" />
<glyph unicode="N" horiz-adv-x="1536" d="M102 0l220 1481h239l537 -1057l153 1057h246l-219 -1481h-219l-551 1085l-160 -1085h-246z" />
<glyph unicode="O" horiz-adv-x="1507" d="M145 735q52 358 255 562t497 204q293 1 435 -203q103 -149 103 -380q0 -85 -14 -181q-52 -355 -252 -556t-495 -201q-298 0 -440 200q-103 146 -103 375q0 85 14 180zM414 733q-14 -95 -14 -173q0 -150 52 -238q78 -134 255 -134q176 0 291 133t155 412q15 101 15 183 q0 150 -50 238q-76 138 -252 138q-178 0 -295 -138t-157 -421z" />
<glyph unicode="P" horiz-adv-x="1292" d="M102 0l217 1481h506q155 0 267 -54q114 -54 168 -163q39 -78 38 -177q0 -40 -6 -83q-32 -219 -187.5 -343t-385.5 -124h-289l-78 -537h-250zM459 735h284q123 0 212 78.5t108 202.5q3 25 3 47q0 91 -56 149q-70 72 -195 72h-278z" />
<glyph unicode="Q" horiz-adv-x="1484" d="M115 737q52 358 253.5 561t495.5 203q295 0 437 -203q104 -149 104 -380q0 -85 -14 -181q-62 -436 -347 -633q18 -70 78.5 -109t145.5 -42l-31 -203q-70 0 -124 9t-111.5 33.5t-106 75.5t-86.5 128q-91 -16 -166 -16q-296 0 -439 200q-103 146 -103 375q0 85 14 182z M383 733q-14 -95 -14 -174q0 -371 305 -371q370 0 448 547q15 102 15 185q0 147 -47 234q-75 138 -256 138q-371 0 -451 -559z" />
<glyph unicode="R" horiz-adv-x="1370" d="M102 0l217 1481h580q239 0 343 -113q80 -88 80 -228q0 -41 -7 -85q-44 -294 -320 -412l174 -643h-254l-153 602h-326l-88 -602h-246zM465 799h283q132 0 216 65.5t101 182.5q4 25 4 47q0 79 -47 129q-60 63 -176 63h-309z" />
<glyph unicode="S" horiz-adv-x="1390" d="M92 399l258 9q6 -110 88.5 -170t210.5 -60q138 0 236.5 56.5t113.5 156.5q2 14 2 27q0 141 -219 194l-256 58q-162 36 -240 132q-60 75 -60 186q0 33 5 69q18 131 104 232.5t217.5 155.5t285.5 54q122 0 220 -35.5t158 -95.5t90 -138q27 -69 27 -143v-20l-250 -8 q0 237 -274 237q-121 0 -208.5 -57.5t-102.5 -155.5q-2 -14 -1 -26q0 -57 33 -93q41 -44 160 -73l248 -60q321 -68 321 -347q0 -43 -8 -91q-25 -177 -199.5 -295t-430.5 -118q-107 0 -202 26.5t-170 76.5q-75 49 -117 131q-40 76 -40 172v13z" />
<glyph unicode="T" horiz-adv-x="1175" d="M133 1255l33 226h1112l-35 -226h-424l-184 -1255h-244l182 1255h-440z" />
<glyph unicode="U" horiz-adv-x="1439" d="M180 555l135 926h250l-137 -951q-7 -48 -7 -88q-1 -104 47 -165q66 -84 207.5 -84t234 84.5t116.5 252.5l139 951h248l-137 -940q-40 -273 -192.5 -417t-438.5 -144q-289 0 -397 146q-79 106 -79 284q0 67 11 145z" />
<glyph unicode="V" horiz-adv-x="1318" d="M158 1481h235l223 -1194l574 1194h237l-714 -1481h-281z" />
<glyph unicode="W" horiz-adv-x="1900" d="M178 1481h244l127 -1069l442 1069h180l136 -1069l440 1069h242l-635 -1481h-205l-133 1051l-438 -1051h-201z" />
<glyph unicode="X" horiz-adv-x="1347" d="M-29 0l586 754l-352 727h307l233 -516l383 516h265l-545 -697l381 -784h-305l-262 565l-422 -565h-269z" />
<glyph unicode="Y" horiz-adv-x="1253" d="M147 1481h267l254 -637l436 637h266l-612 -854l-92 -627h-244l90 627z" />
<glyph unicode="Z" horiz-adv-x="1300" d="M29 0l18 127l909 1143h-700l33 211h1048l-18 -121l-920 -1147h748l-33 -213h-1085z" />
<glyph unicode="[" horiz-adv-x="655" d="M47 -330l262 1811h418l-22 -148h-211l-222 -1515h211l-22 -148h-414z" />
<glyph unicode="\" horiz-adv-x="716" d="M154 1481h176l268 -1538h-176z" />
<glyph unicode="]" horiz-adv-x="675" d="M-86 -330l23 148h210l224 1515h-213l22 148h416l-264 -1811h-418z" />
<glyph unicode="^" horiz-adv-x="950" d="M41 258l410 748q39 70 97 71.5t79 -69.5l188 -752h-174l-131 557l-295 -555h-174z" />
<glyph unicode="_" horiz-adv-x="1073" d="M10 -264l29 184l819 2l-29 -186h-819z" />
<glyph unicode="`" horiz-adv-x="606" d="M133 1329l84 172l461 -205l-55 -112z" />
<glyph unicode="a" horiz-adv-x="1103" d="M47 295q25 177 161 265t400 91l150 4l10 72q3 18 3 35q0 62 -36 98q-43 45 -128 45h-7q-76 0 -142.5 -39t-97.5 -114h-206q30 151 162 239t321 88q213 1 303 -89q72 -71 72 -185q0 -30 -6 -64l-109 -741h-205l6 184q-70 -113 -156.5 -158.5t-201.5 -45.5q-150 0 -232 84 q-65 66 -65 173q0 28 4 58zM285 319q-3 -16 -2 -31q0 -56 35 -92q45 -46 126 -46q88 0 172.5 62t96.5 138l24 168l-123 -2q-302 -3 -329 -197z" />
<glyph unicode="b" horiz-adv-x="1191" d="M72 0l221 1522h246l-93 -641q54 82 140 140t200 58q132 0 214 -71q84 -70 110 -191q14 -63 14 -138q0 -67 -12 -144q-39 -259 -170.5 -407t-337.5 -148q-69 0 -124.5 19t-90.5 50t-56.5 63.5t-31.5 67.5l-51 -180h-178zM383 459q-4 -33 -4 -63q0 -90 38 -151 q51 -81 156 -81q111 0 186 90.5t103 282.5q9 63 9 115q0 241 -191 241q-66 0 -117 -26t-82 -71t-48 -89t-27 -95z" />
<glyph unicode="c" horiz-adv-x="1058" d="M80 524q37 247 192.5 401t368.5 154q175 1 273 -105q91 -98 91 -252q0 -13 -1 -26l-209 -2q-6 87 -51.5 140t-125.5 53q-118 0 -200.5 -95.5t-108.5 -263.5q-7 -50 -6 -93q1 -105 39 -175q56 -98 174 -98q81 0 143 55t89 133h202q-40 -168 -169 -269t-300 -101 q-214 0 -325 150q-84 114 -84 283q0 53 8 111z" />
<glyph unicode="d" horiz-adv-x="1185" d="M82 535q35 246 161.5 395t321.5 149q111 0 185.5 -51t103.5 -119l90 613h246l-225 -1522h-179l2 217q-19 -43 -46.5 -80.5t-70.5 -75t-106 -59.5t-139 -22q-206 0 -294 148q-61 103 -62 259q0 69 12 148zM322 537q-10 -68 -10 -123q0 -100 33 -159q51 -91 161 -91 q105 0 182 74.5t96 191.5l29 205q2 18 2 35q-1 26 -5 52q-8 43 -28 82.5t-64 64t-106 24.5q-113 0 -189 -88t-101 -268z" />
<glyph unicode="e" horiz-adv-x="1099" d="M78 518q36 250 187 405.5t374 155.5q221 0 320 -144q73 -106 73 -265q0 -58 -10 -123l-10 -76h-699q-6 -39 -6 -74q-1 -87 37 -147q52 -84 172 -84q171 0 248 158h223q-55 -162 -193.5 -253t-301.5 -91q-222 0 -336 145q-87 110 -87 280q0 53 9 113zM336 627h469 q4 30 4 58q-1 83 -37 139q-48 75 -160 75q-75 0 -136 -40.5t-95.5 -101t-44.5 -130.5z" />
<glyph unicode="f" horiz-adv-x="782" d="M104 883l27 176h197l24 158q19 128 96.5 196t206.5 68h217l-24 -170h-141q-57 0 -83.5 -30t-35.5 -99l-19 -123h232l-27 -176h-227l-127 -883h-246l129 883h-199z" />
<glyph unicode="g" horiz-adv-x="1232" d="M-33 -82q6 41 28.5 76.5t54 58.5t59 38.5t54.5 26.5t30 13q-2 1 -17.5 11t-23.5 16t-22 19.5t-20.5 26.5t-10.5 33t-1 42q8 56 65 99.5t156 63.5q-158 86 -158 250q0 24 3 49q23 156 166 245t348 89q97 0 162 -22.5t121 -65.5l299 119l-31 -205l-182 -33q12 -44 12 -87 q0 -19 -2 -38q-22 -144 -153 -244t-343 -100q-44 0 -84 4q-137 -5 -141 -57q-2 -13 6.5 -21.5t32.5 -14.5t54 -9.5t83 -7.5q91 -4 213 -12q177 -12 253 -90q61 -63 61 -158q0 -23 -3 -47q-22 -155 -171.5 -245.5t-401.5 -90.5q-258 0 -386 72q-112 64 -112 166q0 15 2 30z M213 -53q-2 -10 -2 -20q0 -62 67 -93q78 -37 246 -37q131 0 195.5 35.5t75.5 108.5q1 11 1 21q0 44 -29 71q-36 33 -120 39l-250 18h-8q-61 0 -113 -40q-56 -43 -63 -103zM410 735q-3 -20 -3 -38q0 -61 37 -100q48 -50 146 -50q99 0 159 49t72 139q4 22 4 42q0 64 -37 105 q-49 54 -141 54q-97 0 -161 -54.5t-76 -146.5z" />
<glyph unicode="h" horiz-adv-x="1185" d="M72 0l223 1522h244l-90 -607q117 154 325 154q149 0 238 -91q73 -74 72 -184q0 -25 -3 -51l-110 -743h-246l104 705q2 16 2 30q0 56 -37 92q-47 45 -132 45q-90 0 -160.5 -47t-81.5 -131l-103 -694h-245z" />
<glyph unicode="i" horiz-adv-x="559" d="M82 0l156 1059h243l-153 -1059h-246zM260 1251l35 236h254l-35 -236h-254z" />
<glyph unicode="j" horiz-adv-x="569" d="M-158 -313l25 166l88 8q65 6 94.5 35t38.5 92l156 1071h245l-157 -1077q-24 -164 -110.5 -243t-254.5 -79q-48 0 -79.5 7t-38.5 13zM268 1251l35 236h254l-35 -236h-254z" />
<glyph unicode="k" horiz-adv-x="1150" d="M72 0l223 1522h244l-138 -942l486 479h268l-428 -414l291 -645h-250l-219 492l-187 -181l-45 -311h-245z" />
<glyph unicode="l" horiz-adv-x="616" d="M106 222q2 29 7 65l180 1235h242l-177 -1209q-3 -21 -4 -40q0 -100 97 -109l49 -2l-23 -156q-61 -22 -110 -22q-56 0 -99.5 9t-72 24t-48 38.5t-29 48t-12 57t-0.5 61.5z" />
<glyph unicode="m" horiz-adv-x="1765" d="M72 0l153 1059h240l-21 -141q132 161 338 161q87 0 162.5 -41t102.5 -120q61 74 151.5 117.5t181.5 43.5q47 0 90 -11.5t84 -37.5t67 -68q27 -42 39 -103q6 -30 5 -65q0 -36 -6 -77l-107 -717h-243l100 692q4 29 4 53q1 66 -31 101q-44 47 -122 47q-90 0 -151 -51 t-77 -160l-100 -682h-244l107 731q2 14 2 26q1 56 -39 92q-48 44 -117 44q-76 0 -142 -46t-77 -130l-107 -717h-243z" />
<glyph unicode="n" horiz-adv-x="1185" d="M72 0l155 1059h240l-21 -141q61 71 138 112t190 41q147 0 236 -101q70 -80 70 -201q0 -33 -5 -69l-104 -700h-246l100 674q3 21 3 40q0 66 -35 106q-45 52 -129 52q-91 0 -162.5 -46.5t-81.5 -129.5l-103 -696h-245z" />
<glyph unicode="o" horiz-adv-x="1122" d="M80 522q37 249 192 403t373 154q221 -1 327 -155q80 -115 79 -282q0 -56 -9 -118q-36 -243 -188 -393.5t-373 -150.5q-223 0 -329 150q-81 113 -80 280q0 53 8 112zM316 394q6 -66 25.5 -116.5t63.5 -80t107 -29.5q122 0 194.5 102.5t94.5 261.5q10 52 10 101q1 19 -1 37 q-6 66 -25.5 115t-62.5 77.5t-106 28.5t-115 -28.5t-87 -79t-58 -113.5t-34 -138q-8 -48 -8 -93q0 -23 2 -45z" />
<glyph unicode="p" horiz-adv-x="1191" d="M25 -330l202 1389h244l-20 -139q146 159 327 159q87 0 156 -32.5t117 -99.5t65 -168q7 -48 7 -105q0 -62 -9 -133q-21 -137 -71.5 -245.5t-121.5 -176.5t-156.5 -103.5t-178.5 -35.5q-174 0 -246 170l-70 -480h-245zM369 338q19 -78 72.5 -126t127.5 -48 q112 0 199.5 98.5t112.5 274.5q7 51 7 94q0 104 -42 169q-59 93 -166 93q-94 0 -173.5 -72.5t-92.5 -154.5z" />
<glyph unicode="q" horiz-adv-x="1181" d="M78 295q-7 47 -7 102q0 67 11 144q19 133 66.5 237.5t114 169t146 98t166.5 33.5q52 0 97.5 -13t81.5 -37t57 -42t47 -45l19 117h243l-205 -1389h-243l69 475q-131 -165 -313 -165q-93 0 -165 35t-120 105t-65 175zM332 541q-8 -57 -8 -107q0 -105 38 -177 q55 -105 166 -105q102 0 171 89t89 222l23 166q4 31 4 59q0 81 -36 139q-49 78 -148 78q-107 0 -190.5 -92.5t-108.5 -271.5z" />
<glyph unicode="r" horiz-adv-x="790" d="M72 0l155 1059h236l-35 -230q56 110 160 180t239 70l-34 -237q-27 2 -53 2q-298 0 -332 -228l-91 -616h-245z" />
<glyph unicode="s" horiz-adv-x="1036" d="M55 322h219q2 -44 20.5 -77t48 -51.5t62.5 -27t70 -8.5q92 0 151.5 34.5t69.5 98.5q1 8 1 15q0 82 -122 110l-178 47q-249 58 -249 244q0 23 4 47q22 150 146 237.5t312 87.5q181 -1 277 -85q78 -69 78 -179q0 -25 -4 -53h-209q0 66 -47 102.5t-127 36.5 q-49 0 -90.5 -10.5t-75 -41.5t-39.5 -79q-1 -8 -1 -15q0 -36 29 -59q35 -28 119 -47l174 -47q58 -15 101 -41.5t65.5 -57.5t36.5 -66.5t14 -69t-2 -64.5q-15 -102 -82.5 -176.5t-164.5 -110.5t-213 -36q-82 0 -152 20.5t-124.5 61.5t-86 107.5t-31.5 152.5z" />
<glyph unicode="t" horiz-adv-x="782" d="M96 883l27 176h170l88 315h197l-46 -313h228l-27 -178h-227l-86 -602q-3 -22 -3 -39q-1 -35 13 -49q20 -21 80 -21h125l-25 -158q-50 -22 -170 -22q-174 0 -232 68q-43 51 -43 140q0 31 5 66l90 617h-164z" />
<glyph unicode="u" horiz-adv-x="1179" d="M113 334l106 727h246l-103 -699q-3 -21 -3 -39q0 -69 41 -108q52 -49 135 -49q89 0 155.5 54t79.5 151l102 690h246l-157 -1061h-189l2 207q-42 -117 -136 -172t-198 -55q-52 1 -102 13.5t-95.5 40.5t-78.5 68q-32 40 -46 100q-9 35 -9 75q0 28 4 57z" />
<glyph unicode="v" horiz-adv-x="1019" d="M113 1059h225l131 -742h12l348 742h226l-531 -1059h-192z" />
<glyph unicode="w" horiz-adv-x="1554" d="M117 1059h221l102 -729h13l309 729h178l102 -727h11l309 727h221l-477 -1059h-209l-102 705l-306 -705h-204z" />
<glyph unicode="x" horiz-adv-x="1142" d="M-25 0l471 551l-282 508h258l184 -332l279 332h260l-434 -508l309 -551h-258l-209 377l-317 -377h-261z" />
<glyph unicode="y" horiz-adv-x="1093" d="M-29 -307l25 160l102 -3h20q35 0 64 5q38 7 60 17.5t40 28.5t25 29.5t15 28.5l36 76l-245 1024h243l158 -748l375 748h239l-577 -1098q-93 -170 -189 -234.5t-219 -64.5q-58 0 -101 8t-57 16z" />
<glyph unicode="z" horiz-adv-x="1038" d="M6 0l21 137l659 760h-506l25 162h811l-21 -135l-661 -760h557l-25 -164h-860z" />
<glyph unicode="{" horiz-adv-x="718" d="M18 514l23 135q222 0 248 195l61 409q14 105 106.5 166.5t209.5 61.5h125l-23 -148h-80q-74 0 -102 -26.5t-35 -79.5l-62 -418q-17 -102 -84 -156t-149 -63q-8 -1 -11.5 -4t-1 -6.5t10.5 -4.5q38 -3 69 -15.5t57.5 -37t38 -69t3.5 -103.5l-62 -424q-8 -59 15.5 -83.5 t93.5 -24.5h78l-23 -148h-121q-121 0 -194.5 62t-56.5 170l63 428q11 78 -38 131t-159 53z" />
<glyph unicode="|" horiz-adv-x="542" d="M57 -330l295 2022h183l-295 -2022h-183z" />
<glyph unicode="}" horiz-adv-x="720" d="M-86 -330l20 148h82q72 0 100.5 26.5t35.5 79.5l61 418q17 102 84 156t149 63q14 2 14 8q-3 5 -11 6q-37 3 -67.5 15.5t-57 37.5t-38.5 69.5t-5 103.5l61 424q9 58 -14 83t-92 25h-78l20 148h121q122 0 195 -61.5t59 -170.5l-64 -428q-11 -78 37.5 -131t157.5 -53 l-20 -135q-221 0 -250 -195l-60 -409q-16 -105 -108 -166.5t-207 -61.5h-125z" />
<glyph unicode="~" horiz-adv-x="1177" d="M143 723q91 82 162 123t156 41q52 0 102 -18.5t82 -41t76 -41t86 -18.5q124 0 223 131l53 -131q-54 -76 -132.5 -119t-164.5 -43q-53 0 -102.5 18.5t-82 41t-77 41t-88.5 18.5q-36 0 -69 -10.5t-65 -32.5t-53.5 -40.5t-53.5 -49.5z" />
<glyph unicode="&#xa1;" horiz-adv-x="542" d="M4 -330l199 967h157l-65 -967h-291zM162 776l39 283h276l-39 -283h-276z" />
<glyph unicode="&#xa2;" horiz-adv-x="1138" d="M133 752q34 216 165 363t318 181l19 185h166l-19 -178q154 -19 238 -121t76 -258l-217 -2q-6 87 -53 139.5t-130 52.5q-123 0 -210 -95.5t-113 -262.5q-25 -169 33.5 -268t181.5 -99q85 0 149.5 55.5t91.5 133.5h211q-32 -130 -121 -222t-214 -129l-23 -227h-166l21 207 q-216 6 -328.5 157t-75.5 388z" />
<glyph unicode="&#xa3;" horiz-adv-x="1253" d="M-37 0l31 209h69q78 0 133.5 60.5t73.5 183.5q15 102 15 245h-201l22 146h173l4 178q-2 110 39.5 202.5t111.5 152t159 92t185 32.5q150 0 257 -73t139 -197l-226 -72q-23 73 -60.5 106t-105.5 33q-84 0 -144 -52.5t-73 -145.5q-13 -91 0 -254h301l-22 -146h-281 q-6 -136 -31 -225q-21 -98 -59 -157.5t-92 -106.5h295q97 0 154.5 37t103.5 129l201 -49q-142 -328 -473 -328h-699z" />
<glyph unicode="&#xa4;" horiz-adv-x="1120" d="M70 383l141 127q-50 103 -33 233q18 125 92 220q10 17 0 30l-92 117l123 113l107 -133q112 73 235 73q121 0 207 -65q13 -6 24 2l123 114l90 -114l-135 -121q52 -111 35 -234q-20 -132 -96 -223q-7 -10 -2 -18l96 -113l-125 -112l-98 122q-121 -75 -238 -75 q-119 0 -207 63q-15 12 -28 -4l-131 -117zM348 745q-15 -100 42.5 -173.5t158.5 -73.5q99 0 178 73.5t94 173.5q14 100 -43 174t-157 74q-99 0 -179 -74.5t-94 -173.5z" />
<glyph unicode="&#xa5;" horiz-adv-x="1259" d="M131 1481h318l251 -631l435 631h258l-570 -776h269l-23 -144h-297l-24 -170h296l-20 -141h-297l-37 -250h-276l35 250h-295l20 141h295l25 168h-295l20 143h246z" />
<glyph unicode="&#xa6;" horiz-adv-x="542" d="M57 -330l121 830h180l-118 -830h-183zM231 862l121 830h183l-121 -830h-183z" />
<glyph unicode="&#xa7;" horiz-adv-x="997" d="M2 84l166 80q79 -158 260 -158q87 0 144.5 33t66.5 94q8 48 -23.5 87t-119.5 77l-150 63q-139 58 -194.5 132.5t-40.5 183.5q13 91 72 159.5t149 106.5q-86 57 -115 118.5t-18 137.5q21 132 138.5 217.5t291.5 85.5q137 0 234 -63t132 -154l-166 -80q-93 137 -217 137 q-79 0 -129.5 -32t-58.5 -88q-12 -79 106 -134l148 -63q152 -66 211.5 -144.5t42.5 -191.5q-23 -168 -205 -266q83 -53 116 -113.5t21 -144.5q-21 -142 -142.5 -230t-313.5 -88q-154 0 -263.5 67.5t-142.5 170.5zM319 709q-8 -49 20.5 -82.5t117.5 -73.5l98 -45 q62 -6 112 37.5t56 107.5q3 56 -25 94.5t-108 73.5l-90 39q-71 -6 -122 -50t-59 -101z" />
<glyph unicode="&#xa8;" horiz-adv-x="645" d="M102 1251l35 236h254l-35 -236h-254zM489 1251l35 236h254l-35 -236h-254z" />
<glyph unicode="&#xa9;" horiz-adv-x="1626" d="M109 741q22 154 100.5 294.5t191 242.5t256 162.5t291.5 60.5t275 -60.5t210 -162.5t120.5 -242.5t15.5 -294.5q-31 -208 -155 -383.5t-306.5 -276.5t-380.5 -101q-149 0 -275 60t-208.5 161.5t-119.5 242.5t-15 297zM266 741q-20 -137 6.5 -252.5t91 -194t164 -122 t222.5 -43.5q162 0 302.5 74.5t236.5 215t122 322.5q26 181 -28.5 322t-173.5 217t-281 76q-164 0 -305.5 -76t-236 -217t-120.5 -322zM459 743q28 190 153 309t293 119q126 0 201 -71.5t98 -175.5l-176 -29q-17 64 -48 100.5t-87 36.5q-88 0 -149.5 -74t-81.5 -210 q-21 -139 21.5 -214t133.5 -75q123 0 217 147l121 -37q-23 -43 -56 -84t-79 -80t-108 -62.5t-130 -23.5q-169 0 -260 118t-63 306z" />
<glyph unicode="&#xaa;" horiz-adv-x="774" d="M147 999q14 98 105 158.5t240 67.5l88 6l6 47q8 57 -20.5 82.5t-80.5 25.5q-46 0 -81.5 -19.5t-67.5 -70.5l-129 35q50 84 121 126t180 42q132 -1 185.5 -57t39.5 -160q-34 -237 -35 -250q-12 -81 -12 -141l2 -66h-151l-5 78q-60 -48 -106.5 -69t-103.5 -21 q-96 0 -141.5 49.5t-33.5 136.5zM299 1008q-5 -39 20 -63.5t74 -24.5q60 0 113 43q43 39 45 69l14 105l-71 -4q-87 -6 -137 -38.5t-58 -86.5z" />
<glyph unicode="&#xab;" horiz-adv-x="954" d="M92 514l299 393h135l-233 -393l117 -377h-131zM455 514l299 393h135l-234 -393l119 -377h-133z" />
<glyph unicode="&#xac;" horiz-adv-x="1142" d="M139 651l29 187h897l-29 -187l-45 -301h-200l43 301h-695z" />
<glyph unicode="&#xad;" horiz-adv-x="778" d="M109 434l26 187h522l-26 -187h-522z" />
<glyph unicode="&#xae;" horiz-adv-x="1079" d="M147 1024q29 198 183 337.5t346 139.5q123 0 218.5 -63.5t140.5 -173.5t26 -240q-14 -97 -63 -185t-119.5 -151.5t-160.5 -101t-183 -37.5q-125 0 -221 63t-141 172.5t-26 239.5zM260 1024q-25 -167 55 -267t236 -100q154 0 263 100t134 267t-55 268t-234 101 q-157 0 -265.5 -101t-133.5 -268zM389 786l70 471h209q79 0 117.5 -31.5t29.5 -90.5q-13 -93 -110 -127l57 -222h-113l-41 211h-86l-30 -211h-103zM532 1073h101q69 0 78 53q3 26 -14 41t-54 15h-94z" />
<glyph unicode="&#xaf;" horiz-adv-x="727" d="M141 1298l25 164h649l-24 -164h-650z" />
<glyph unicode="&#xb0;" horiz-adv-x="935" d="M262 1378q22 146 126.5 240t242.5 94q137 0 214.5 -94.5t55.5 -239.5t-126 -238t-243 -93t-215.5 92.5t-54.5 238.5zM410 1376q-9 -83 28.5 -133.5t114.5 -50.5q76 0 128.5 51t63.5 133q14 82 -25 133.5t-116 51.5q-76 0 -129.5 -51.5t-64.5 -133.5z" />
<glyph unicode="&#xb1;" horiz-adv-x="1146" d="M61 94l27 185l895 2l-27 -187h-895zM168 817l27 187h358l53 372h185l-56 -372h357l-29 -185h-354l-56 -373h-182l53 371h-356z" />
<glyph unicode="&#xb2;" horiz-adv-x="745" d="M96 786l13 84l6 43q10 67 44 122t81 92t101.5 68t109 58t99.5 54.5t76.5 65.5t37.5 83q9 63 -27.5 102t-106.5 39q-76 0 -131 -45.5t-77 -128.5h-150q21 134 121.5 221t261.5 87q143 0 216 -75.5t56 -199.5q-10 -67 -43.5 -121t-79 -89.5t-99 -64.5t-106 -54t-97 -50.5 t-75 -61.5t-36.5 -81l-2 -12h461l-21 -136h-633z" />
<glyph unicode="&#xb3;" horiz-adv-x="794" d="M127 1065h149q0 -81 42.5 -121.5t117.5 -40.5q88 0 146 40.5t69 107.5q10 70 -38 109.5t-134 41.5l-82 2l19 129l78 2q77 3 133 44t65 100q8 55 -34.5 91t-118.5 36q-74 0 -129.5 -41.5t-71.5 -126.5h-150q21 140 124.5 216.5t246.5 76.5q151 0 233 -63.5t64 -182.5 q-19 -148 -194 -207q80 -25 123 -83.5t30 -147.5q-20 -129 -132 -202t-269 -71q-152 0 -229 78t-58 213z" />
<glyph unicode="&#xb4;" horiz-adv-x="604" d="M133 1296l520 205l31 -172l-530 -145z" />
<glyph unicode="&#xb5;" horiz-adv-x="1204" d="M18 -338l207 1423h254l-104 -704q-9 -68 35 -115t120 -47q69 0 136.5 42t124.5 116l100 708h254l-162 -1085h-244l25 168q-77 -67 -135 -98t-119 -37q-109 -13 -180 39l-60 -410h-252z" />
<glyph unicode="&#xb6;" horiz-adv-x="1163" d="M152 1038q13 90 54.5 169t106 140.5t157 97.5t200.5 36h491l-22 -146h-121l-221 -1505h-154l221 1505h-108l-219 -1505h-156l115 780q-177 11 -274 127.5t-70 300.5z" />
<glyph unicode="&#xb7;" horiz-adv-x="497" d="M119 614l39 265h266l-39 -265h-266z" />
<glyph unicode="&#xb8;" horiz-adv-x="505" d="M-100 -375l49 90q64 -49 137 -49q49 0 77.5 18t33.5 50q6 44 -29 65.5t-121 22.5q-12 0 -14 3t4 13l96 172h115l-64 -121q97 -4 137 -49.5t31 -105.5q-10 -75 -82.5 -119.5t-167.5 -44.5q-128 0 -202 55z" />
<glyph unicode="&#xb9;" horiz-adv-x="612" d="M147 1495l15 94q112 0 165.5 30t69.5 91h103l-135 -932h-158l106 717h-166z" />
<glyph unicode="&#xba;" horiz-adv-x="765" d="M168 1155q23 155 120.5 250.5t231.5 95.5q136 0 206 -96.5t48 -249.5q-22 -151 -118 -245.5t-234 -94.5t-206.5 94.5t-47.5 245.5zM328 1159q-15 -111 12.5 -170t97.5 -59q71 0 116 59t60 170q31 225 -110 225q-72 0 -116.5 -58t-59.5 -167z" />
<glyph unicode="&#xbb;" horiz-adv-x="952" d="M55 137l228 377l-117 393h133l184 -393l-297 -377h-131zM416 137l231 377l-119 393h134l184 -393l-297 -377h-133z" />
<glyph unicode="&#xbc;" horiz-adv-x="1931" d="M117 1282l14 94q113 0 166.5 30t69.5 91h102l-135 -932h-158l107 717h-166zM332 -8l416 708l682 797l-416 -706zM1096 221l20 133l494 578h153l-84 -578h142l-19 -133h-143l-31 -221h-149l32 221h-415zM1260 354h270l55 383z" />
<glyph unicode="&#xbd;" horiz-adv-x="1867" d="M117 1282l14 94q113 0 166.5 30t69.5 91h102l-135 -932h-158l107 717h-166zM332 -8l416 708l682 797l-416 -706zM1090 0l12 84l6 43q10 67 44 122t81 92t101.5 68t109 58t99.5 54.5t76.5 65.5t37.5 83q9 63 -27 102t-106 39q-76 0 -131.5 -46t-77.5 -128h-150 q21 134 121.5 220.5t261.5 86.5q144 0 217 -75t56 -199q-10 -67 -43.5 -121t-79.5 -89.5t-99 -64.5t-106 -54t-97.5 -51t-75 -62t-36.5 -81l-2 -12h461l-21 -135h-632z" />
<glyph unicode="&#xbe;" horiz-adv-x="2113" d="M96 850h150q0 -81 42.5 -121.5t117.5 -40.5q88 0 146 40.5t69 107.5q10 70 -38 109.5t-134 41.5l-82 2l18 129l78 2q78 3 134 44t65 100q8 55 -35 91t-119 36q-74 0 -129.5 -41.5t-71.5 -126.5h-149q21 140 124 216.5t246 76.5q152 0 233.5 -63.5t63.5 -182.5 q-19 -148 -194 -207q80 -25 123 -84t30 -148q-20 -128 -132 -201t-269 -71q-152 0 -229 78t-58 213zM514 -8l416 708l682 797l-416 -706zM1278 221l20 133l494 578h154l-84 -578h141l-18 -133h-144l-31 -221h-149l33 221h-416zM1442 354h270l55 383z" />
<glyph unicode="&#xbf;" horiz-adv-x="1060" d="M-6 4q9 67 38 123.5t68 96t85 75.5t91.5 70.5t84.5 72t67.5 89t36.5 112.5h203q-10 -73 -37 -135.5t-63 -106.5t-77.5 -83t-82.5 -73t-75.5 -67t-59 -74.5t-31.5 -87.5q-10 -83 42 -133.5t146 -50.5q87 0 173.5 55t127.5 138l205 -56q-84 -153 -222 -236t-311 -83 q-217 0 -323.5 99t-85.5 255zM446 776l39 283h277l-39 -283h-277z" />
<glyph unicode="&#xc0;" d="M-10 0l729 1481h262l293 -1481h-246l-70 371h-540l-182 -371h-246zM508 594h422l-115 645zM598 1751l84 172l461 -205l-56 -112z" />
<glyph unicode="&#xc1;" d="M-10 0l729 1481h262l293 -1481h-246l-70 371h-540l-182 -371h-246zM508 594h422l-115 645zM612 1718l521 205l30 -172l-530 -145z" />
<glyph unicode="&#xc2;" d="M-10 0l729 1481h262l293 -1481h-246l-70 371h-540l-182 -371h-246zM500 1657l291 256h172l211 -256h-205l-111 145l-166 -145h-192zM508 594h422l-115 645z" />
<glyph unicode="&#xc3;" d="M-10 0l729 1481h262l293 -1481h-246l-70 371h-540l-182 -371h-246zM508 594h422l-115 645zM582 1815q47 42 91 64t101 22q54 0 140 -30t128 -30q73 0 162 64l15 -140q-87 -67 -199 -67q-54 0 -133 27.5t-125 27.5t-80 -14.5t-78 -46.5z" />
<glyph unicode="&#xc4;" d="M-10 0l729 1481h262l293 -1481h-246l-70 371h-540l-182 -371h-246zM508 594h422l-115 645zM553 1669l35 236h254l-35 -236h-254zM940 1669l35 236h254l-35 -236h-254z" />
<glyph unicode="&#xc5;" d="M-10 0l729 1481h262l293 -1481h-246l-70 371h-540l-182 -371h-246zM508 594h422l-115 645zM690 1815q12 87 82.5 147.5t157.5 60.5q88 0 139.5 -62t38.5 -151q-12 -92 -83 -154.5t-159 -62.5t-138.5 64t-37.5 158zM795 1808q-8 -41 18.5 -73.5t67.5 -32.5q40 0 74 32 t42 74q6 46 -18.5 75.5t-67.5 29.5q-41 0 -75.5 -30t-40.5 -75z" />
<glyph unicode="&#xc6;" horiz-adv-x="2013" d="M-74 0l987 1481h1090l-31 -211h-674l-61 -420h475l-31 -207h-475l-61 -432h696l-31 -211h-976l55 375h-471l-246 -375h-246zM545 594h375l104 717z" />
<glyph unicode="&#xc7;" horiz-adv-x="1415" d="M147 748q51 351 247 552t487 201q233 0 368.5 -135t126.5 -342l-258 -6q-3 126 -72.5 200t-201.5 74q-349 0 -428 -547q-41 -279 29.5 -418t244.5 -139q118 0 211 78t135 205l256 -10q-25 -96 -72.5 -178t-117.5 -147.5t-167.5 -106t-213.5 -47.5l-49 -93 q97 -4 137 -49.5t31 -105.5q-10 -75 -82.5 -119.5t-167.5 -44.5q-129 0 -203 55l49 90q64 -49 137 -49q49 0 77.5 18t33.5 50q6 44 -28.5 65.5t-120.5 22.5q-12 0 -14.5 3t3.5 13l80 144q-262 23 -383.5 228.5t-73.5 537.5z" />
<glyph unicode="&#xc8;" horiz-adv-x="1269" d="M102 0l220 1481h942l-33 -213h-696l-60 -416h612l-30 -211h-615l-61 -424l713 -2l-33 -215h-959zM520 1751l84 172l461 -205l-55 -112z" />
<glyph unicode="&#xc9;" horiz-adv-x="1269" d="M102 0l220 1481h942l-33 -213h-696l-60 -416h612l-30 -211h-615l-61 -424l713 -2l-33 -215h-959zM535 1718l520 205l30 -172l-530 -145z" />
<glyph unicode="&#xca;" horiz-adv-x="1269" d="M102 0l220 1481h942l-33 -213h-696l-60 -416h612l-30 -211h-615l-61 -424l713 -2l-33 -215h-959zM459 1657l293 256h170l211 -256h-205l-109 145l-168 -145h-192z" />
<glyph unicode="&#xcb;" horiz-adv-x="1269" d="M102 0l220 1481h942l-33 -213h-696l-60 -416h612l-30 -211h-615l-61 -424l713 -2l-33 -215h-959zM475 1669l35 236h254l-35 -236h-254zM862 1669l35 236h254l-35 -236h-254z" />
<glyph unicode="&#xcc;" horiz-adv-x="604" d="M102 0l217 1481h246l-217 -1481h-246zM190 1751l84 172l461 -205l-55 -112z" />
<glyph unicode="&#xcd;" horiz-adv-x="604" d="M102 0l217 1481h246l-217 -1481h-246zM207 1718l520 205l31 -172l-531 -145z" />
<glyph unicode="&#xce;" horiz-adv-x="604" d="M102 0l217 1481h246l-217 -1481h-246zM129 1657l293 256h170l211 -256h-205l-109 145l-167 -145h-193z" />
<glyph unicode="&#xcf;" horiz-adv-x="604" d="M102 0l217 1481h246l-217 -1481h-246zM147 1669l35 236h254l-35 -236h-254zM535 1669l34 236h254l-35 -236h-253z" />
<glyph unicode="&#xd0;" horiz-adv-x="1507" d="M94 641l21 188h204l97 652q266 0 387 -2q736 -14 629 -731q-54 -362 -269 -555t-592 -193h-372l94 641h-199zM477 207h129q230 0 379.5 129t190.5 412q40 279 -66 403.5t-342 124.5h-135l-66 -447h303l-22 -188h-307z" />
<glyph unicode="&#xd1;" horiz-adv-x="1536" d="M102 0l220 1481h239l537 -1057l153 1057h246l-219 -1481h-219l-551 1085l-160 -1085h-246zM639 1815q47 42 91 64t101 22q54 0 140.5 -30t128.5 -30q73 0 162 64l14 -140q-87 -67 -199 -67q-55 0 -134 27.5t-124 27.5q-46 0 -79.5 -14.5t-77.5 -46.5z" />
<glyph unicode="&#xd2;" horiz-adv-x="1507" d="M145 735q52 358 255 562t497 204q293 0 434.5 -203.5t89.5 -560.5q-52 -355 -252 -556t-495 -201q-298 0 -439.5 200t-89.5 555zM414 733q-40 -278 37.5 -411.5t255.5 -133.5q176 0 291 133t155 412q42 284 -34.5 421.5t-252.5 137.5q-178 0 -295 -138t-157 -421z M633 1751l84 172l461 -205l-56 -112z" />
<glyph unicode="&#xd3;" horiz-adv-x="1507" d="M145 735q52 358 255 562t497 204q293 0 434.5 -203.5t89.5 -560.5q-52 -355 -252 -556t-495 -201q-298 0 -439.5 200t-89.5 555zM414 733q-40 -278 37.5 -411.5t255.5 -133.5q176 0 291 133t155 412q42 284 -34.5 421.5t-252.5 137.5q-178 0 -295 -138t-157 -421z M647 1718l520 205l31 -172l-530 -145z" />
<glyph unicode="&#xd4;" horiz-adv-x="1507" d="M145 735q52 358 255 562t497 204q293 0 434.5 -203.5t89.5 -560.5q-52 -355 -252 -556t-495 -201q-298 0 -439.5 200t-89.5 555zM414 733q-40 -278 37.5 -411.5t255.5 -133.5q176 0 291 133t155 412q42 284 -34.5 421.5t-252.5 137.5q-178 0 -295 -138t-157 -421z M571 1657l293 256h170l211 -256h-205l-108 145l-168 -145h-193z" />
<glyph unicode="&#xd5;" horiz-adv-x="1507" d="M145 735q52 358 255 562t497 204q293 0 434.5 -203.5t89.5 -560.5q-52 -355 -252 -556t-495 -201q-298 0 -439.5 200t-89.5 555zM414 733q-40 -278 37.5 -411.5t255.5 -133.5q176 0 291 133t155 412q42 284 -34.5 421.5t-252.5 137.5q-178 0 -295 -138t-157 -421z M616 1815q47 42 91 64t102 22q54 0 140 -30t128 -30q73 0 162 64l14 -140q-87 -67 -198 -67q-55 0 -134 27.5t-124 27.5q-46 0 -80 -14.5t-78 -46.5z" />
<glyph unicode="&#xd6;" horiz-adv-x="1507" d="M145 735q52 358 255 562t497 204q293 0 434.5 -203.5t89.5 -560.5q-52 -355 -252 -556t-495 -201q-298 0 -439.5 200t-89.5 555zM414 733q-40 -278 37.5 -411.5t255.5 -133.5q176 0 291 133t155 412q42 284 -34.5 421.5t-252.5 137.5q-178 0 -295 -138t-157 -421z M588 1669l35 236h254l-35 -236h-254zM975 1669l35 236h254l-35 -236h-254z" />
<glyph unicode="&#xd7;" horiz-adv-x="1118" d="M109 428l350 317l-258 318l147 131l258 -317l355 319l108 -131l-354 -320l260 -317l-150 -133l-258 317l-350 -317z" />
<glyph unicode="&#xd8;" horiz-adv-x="1515" d="M-12 92l192 182q-80 186 -37 461q52 358 254 562t496 204q266 0 407 -170l185 176l96 -116l-199 -193q77 -190 37 -461q-52 -355 -252 -556t-495 -201q-267 0 -406 161l-180 -170zM436 500l666 657q-60 141 -238 141q-157 0 -257 -115t-146 -352q-34 -176 -25 -331z M461 315q67 -131 244 -131q153 0 249 106t140 328q39 178 30 355z" />
<glyph unicode="&#xd9;" horiz-adv-x="1439" d="M180 555l135 926h250l-137 -951q-26 -169 40.5 -253t207.5 -84t233.5 84.5t116.5 252.5l139 951h248l-137 -940q-40 -273 -192.5 -417t-438.5 -144q-289 0 -397.5 145.5t-67.5 429.5zM612 1751l84 172l461 -205l-55 -112z" />
<glyph unicode="&#xda;" horiz-adv-x="1439" d="M180 555l135 926h250l-137 -951q-26 -169 40.5 -253t207.5 -84t233.5 84.5t116.5 252.5l139 951h248l-137 -940q-40 -273 -192.5 -417t-438.5 -144q-289 0 -397.5 145.5t-67.5 429.5zM629 1718l520 205l31 -172l-531 -145z" />
<glyph unicode="&#xdb;" horiz-adv-x="1439" d="M180 555l135 926h250l-137 -951q-26 -169 40.5 -253t207.5 -84t233.5 84.5t116.5 252.5l139 951h248l-137 -940q-40 -273 -192.5 -417t-438.5 -144q-289 0 -397.5 145.5t-67.5 429.5zM551 1657l293 256h170l211 -256h-205l-109 145l-168 -145h-192z" />
<glyph unicode="&#xdc;" horiz-adv-x="1439" d="M180 555l135 926h250l-137 -951q-26 -169 40.5 -253t207.5 -84t233.5 84.5t116.5 252.5l139 951h248l-137 -940q-40 -273 -192.5 -417t-438.5 -144q-289 0 -397.5 145.5t-67.5 429.5zM569 1669l35 236h254l-35 -236h-254zM956 1669l35 236h254l-35 -236h-254z" />
<glyph unicode="&#xdd;" horiz-adv-x="1253" d="M147 1481h267l254 -637l436 637h266l-612 -854l-92 -627h-244l90 627zM512 1720l520 205l31 -172l-531 -145z" />
<glyph unicode="&#xde;" horiz-adv-x="1376" d="M102 0l217 1481h281l-43 -293h301q118 0 212.5 -26.5t161 -78t96.5 -134.5t15 -189q-21 -143 -101.5 -243.5t-202 -149t-275.5 -48.5h-334l-47 -319h-281zM459 526h301q123 0 202 61t97 177q14 110 -52 163.5t-194 53.5h-287z" />
<glyph unicode="&#xdf;" horiz-adv-x="1218" d="M106 0l119 846h-119l25 176h119q15 97 53.5 178.5t101 145t155 99.5t206.5 36q178 0 258.5 -81t60.5 -214q-14 -105 -79 -167t-197 -122q-36 -20 -49.5 -28.5t-24.5 -21.5t-14 -30q-3 -26 11 -38.5t56 -26.5q124 -60 165 -88q139 -94 147 -243q2 -39 -4 -83 q-24 -170 -144 -264t-293 -94q-152 0 -245 69l96 158q26 -20 43.5 -31t50 -21t68.5 -10q85 0 143 44t70 124q5 34 -3 61.5t-20.5 45.5t-41 36.5t-50.5 28.5t-63 27q-42 19 -71 38.5t-55.5 49t-37 70.5t-4.5 92q11 73 53 124.5t119 102.5q4 3 21.5 15t23 15.5t20.5 14.5 t20.5 16.5t18 16.5t17.5 18.5t13.5 19t12.5 22t8 23t6 26.5q9 63 -28 100t-115 37q-98 0 -163.5 -64t-82.5 -180l-149 -1069h-228z" />
<glyph unicode="&#xe0;" horiz-adv-x="1103" d="M47 295q25 177 161 265t400 91l150 4l10 72q12 87 -33 133.5t-135 44.5q-76 0 -142.5 -39t-97.5 -114h-206q30 151 162 239t321 88q212 0 302.5 -89.5t66.5 -248.5l-109 -741h-205l6 184q-70 -113 -156.5 -158.5t-201.5 -45.5q-151 0 -232.5 83.5t-60.5 231.5zM285 319 q-12 -78 33 -123.5t126 -45.5q88 0 172.5 62t96.5 138l24 168l-123 -2q-302 -3 -329 -197zM383 1329l84 172l461 -205l-56 -112z" />
<glyph unicode="&#xe1;" horiz-adv-x="1103" d="M47 295q25 177 161 265t400 91l150 4l10 72q12 87 -33 133.5t-135 44.5q-76 0 -142.5 -39t-97.5 -114h-206q30 151 162 239t321 88q212 0 302.5 -89.5t66.5 -248.5l-109 -741h-205l6 184q-70 -113 -156.5 -158.5t-201.5 -45.5q-151 0 -232.5 83.5t-60.5 231.5zM285 319 q-12 -78 33 -123.5t126 -45.5q88 0 172.5 62t96.5 138l24 168l-123 -2q-302 -3 -329 -197zM397 1296l521 205l30 -172l-530 -145z" />
<glyph unicode="&#xe2;" horiz-adv-x="1103" d="M47 295q25 177 161 265t400 91l150 4l10 72q12 87 -33 133.5t-135 44.5q-76 0 -142.5 -39t-97.5 -114h-206q30 151 162 239t321 88q212 0 302.5 -89.5t66.5 -248.5l-109 -741h-205l6 184q-70 -113 -156.5 -158.5t-201.5 -45.5q-151 0 -232.5 83.5t-60.5 231.5zM285 319 q-12 -78 33 -123.5t126 -45.5q88 0 172.5 62t96.5 138l24 168l-123 -2q-302 -3 -329 -197zM322 1235l292 256h170l211 -256h-204l-109 145l-168 -145h-192z" />
<glyph unicode="&#xe3;" horiz-adv-x="1103" d="M47 295q25 177 161 265t400 91l150 4l10 72q12 87 -33 133.5t-135 44.5q-76 0 -142.5 -39t-97.5 -114h-206q30 151 162 239t321 88q212 0 302.5 -89.5t66.5 -248.5l-109 -741h-205l6 184q-70 -113 -156.5 -158.5t-201.5 -45.5q-151 0 -232.5 83.5t-60.5 231.5zM285 319 q-12 -78 33 -123.5t126 -45.5q88 0 172.5 62t96.5 138l24 168l-123 -2q-302 -3 -329 -197zM367 1393q47 42 91 64t101 22q54 0 140 -30t128 -30q73 0 162 64l15 -140q-87 -67 -199 -67q-55 0 -134 27.5t-124 27.5q-46 0 -80 -14.5t-78 -46.5z" />
<glyph unicode="&#xe4;" horiz-adv-x="1103" d="M47 295q25 177 161 265t400 91l150 4l10 72q12 87 -33 133.5t-135 44.5q-76 0 -142.5 -39t-97.5 -114h-206q30 151 162 239t321 88q212 0 302.5 -89.5t66.5 -248.5l-109 -741h-205l6 184q-70 -113 -156.5 -158.5t-201.5 -45.5q-151 0 -232.5 83.5t-60.5 231.5zM285 319 q-12 -78 33 -123.5t126 -45.5q88 0 172.5 62t96.5 138l24 168l-123 -2q-302 -3 -329 -197zM338 1247l35 236h254l-35 -236h-254zM725 1247l35 236h254l-35 -236h-254z" />
<glyph unicode="&#xe5;" horiz-adv-x="1103" d="M47 295q25 177 161 265t400 91l150 4l10 72q12 87 -33 133.5t-135 44.5q-76 0 -142.5 -39t-97.5 -114h-206q30 151 162 239t321 88q212 0 302.5 -89.5t66.5 -248.5l-109 -741h-205l6 184q-70 -113 -156.5 -158.5t-201.5 -45.5q-151 0 -232.5 83.5t-60.5 231.5zM285 319 q-12 -78 33 -123.5t126 -45.5q88 0 172.5 62t96.5 138l24 168l-123 -2q-302 -3 -329 -197zM475 1393q12 87 82.5 148t157.5 61q88 0 139.5 -62t38.5 -151q-12 -92 -83 -155t-159 -63t-138.5 64t-37.5 158zM580 1386q-8 -41 18.5 -73.5t67.5 -32.5q40 0 74 32t42 74 q6 46 -18.5 75.5t-67.5 29.5q-41 0 -75.5 -30t-40.5 -75z" />
<glyph unicode="&#xe6;" horiz-adv-x="1804" d="M45 279q22 157 164 250t397 110l158 12l10 74q14 91 -28.5 140.5t-137.5 49.5q-152 0 -260 -157l-198 55q81 133 199 199.5t296 66.5q260 -3 324 -155q146 155 352 155q142 0 240.5 -69.5t141 -206t15.5 -322.5l-735 -2q-19 -133 49.5 -228t184.5 -95q92 0 160 40.5 t145 120.5l143 -73q-102 -137 -224 -200.5t-280 -63.5q-235 0 -366 196q-6 8 -17 0q-99 -93 -203 -144.5t-247 -51.5q-155 0 -229.5 81t-53.5 218zM289 295q-9 -73 31 -115t124 -39q102 3 182.5 59t92.5 136l24 176l-129 -10q-135 -11 -223.5 -64t-101.5 -143zM1012 627 l485 -2q10 72 -7.5 138t-66 110.5t-118.5 44.5q-108 0 -191.5 -78.5t-101.5 -212.5z" />
<glyph unicode="&#xe7;" horiz-adv-x="1058" d="M80 524q37 247 192.5 401t368.5 154q175 0 273 -105.5t90 -277.5l-209 -2q-6 87 -51.5 140t-125.5 53q-118 0 -200.5 -95.5t-108.5 -263.5q-23 -169 32.5 -267.5t174.5 -98.5q81 0 143 55t89 133h202q-37 -154 -149.5 -253.5t-265.5 -114.5l-50 -93q97 -4 137 -49.5 t31 -105.5q-10 -75 -82.5 -119.5t-167.5 -44.5q-128 0 -202 55l49 90q64 -49 137 -49q49 0 77.5 18t33.5 50q6 44 -29 65.5t-121 22.5q-12 0 -14 3t4 13l82 146q-185 23 -278.5 170t-61.5 370z" />
<glyph unicode="&#xe8;" horiz-adv-x="1099" d="M78 518q36 250 187 405.5t374 155.5q221 0 320 -144t63 -388l-10 -76h-699q-21 -138 31.5 -221.5t171.5 -83.5q171 0 248 158h223q-55 -162 -193.5 -253t-301.5 -91q-222 0 -336 145t-78 393zM336 627h469q16 122 -32.5 197t-160.5 75q-75 0 -136 -40.5t-95.5 -101 t-44.5 -130.5zM385 1329l84 172l461 -205l-56 -112z" />
<glyph unicode="&#xe9;" horiz-adv-x="1099" d="M78 518q36 250 187 405.5t374 155.5q221 0 320 -144t63 -388l-10 -76h-699q-21 -138 31.5 -221.5t171.5 -83.5q171 0 248 158h223q-55 -162 -193.5 -253t-301.5 -91q-222 0 -336 145t-78 393zM336 627h469q16 122 -32.5 197t-160.5 75q-75 0 -136 -40.5t-95.5 -101 t-44.5 -130.5zM401 1296l521 205l30 -172l-530 -145z" />
<glyph unicode="&#xea;" horiz-adv-x="1099" d="M78 518q36 250 187 405.5t374 155.5q221 0 320 -144t63 -388l-10 -76h-699q-21 -138 31.5 -221.5t171.5 -83.5q171 0 248 158h223q-55 -162 -193.5 -253t-301.5 -91q-222 0 -336 145t-78 393zM324 1235l292 256h170l211 -256h-204l-109 145l-168 -145h-192zM336 627h469 q16 122 -32.5 197t-160.5 75q-75 0 -136 -40.5t-95.5 -101t-44.5 -130.5z" />
<glyph unicode="&#xeb;" horiz-adv-x="1099" d="M78 518q36 250 187 405.5t374 155.5q221 0 320 -144t63 -388l-10 -76h-699q-21 -138 31.5 -221.5t171.5 -83.5q171 0 248 158h223q-55 -162 -193.5 -253t-301.5 -91q-222 0 -336 145t-78 393zM336 627h469q16 122 -32.5 197t-160.5 75q-75 0 -136 -40.5t-95.5 -101 t-44.5 -130.5zM342 1247l35 236h254l-35 -236h-254zM729 1247l35 236h254l-35 -236h-254z" />
<glyph unicode="&#xec;" horiz-adv-x="548" d="M76 0l157 1059h246l-157 -1059h-246zM104 1329l84 172l461 -205l-55 -112z" />
<glyph unicode="&#xed;" horiz-adv-x="548" d="M76 0l157 1059h246l-157 -1059h-246zM121 1296l520 205l31 -172l-531 -145z" />
<glyph unicode="&#xee;" horiz-adv-x="548" d="M43 1235l293 256h170l211 -256h-205l-109 145l-167 -145h-193zM76 0l157 1059h246l-157 -1059h-246z" />
<glyph unicode="&#xef;" horiz-adv-x="548" d="M61 1247l35 236h254l-35 -236h-254zM76 0l157 1059h246l-157 -1059h-246zM449 1247l34 236h254l-35 -236h-253z" />
<glyph unicode="&#xf0;" horiz-adv-x="1165" d="M76 504q34 233 196.5 383.5t376.5 150.5q95 0 144 -59q-50 143 -181 254l-290 -160l-39 88l245 131q-68 44 -192 99l156 112q130 -43 233 -106l205 110l33 -90l-152 -82q176 -140 244 -343.5t32 -452.5q-37 -253 -197 -406t-390 -153q-221 0 -338.5 147.5t-85.5 376.5z M326 510q-25 -162 30.5 -260t171.5 -98q118 0 200.5 97t105.5 261q25 164 -29.5 262t-171.5 98q-116 0 -200 -98t-107 -262z" />
<glyph unicode="&#xf1;" horiz-adv-x="1185" d="M72 0l155 1059h240l-21 -141q61 71 138 112t190 41q147 0 236 -101t65 -270l-104 -700h-246l100 674q13 93 -32 145.5t-129 52.5q-91 0 -162.5 -46.5t-81.5 -129.5l-103 -696h-245zM418 1393q47 42 91 64t101 22q54 0 140.5 -30t128.5 -30q72 0 161 64l15 -140 q-87 -67 -199 -67q-55 0 -133.5 27.5t-124.5 27.5t-80 -14.5t-78 -46.5z" />
<glyph unicode="&#xf2;" horiz-adv-x="1122" d="M80 522q37 249 192 403t373 154q220 0 326.5 -154.5t70.5 -400.5q-36 -243 -188 -393.5t-373 -150.5q-222 0 -328.5 149.5t-72.5 392.5zM316 394q6 -66 25.5 -116.5t63.5 -80t107 -29.5q122 0 194.5 102.5t94.5 261.5q14 73 8.5 138.5t-25 114.5t-62.5 77.5t-106 28.5 t-115 -28.5t-87 -79t-58 -113.5t-34 -138q-12 -72 -6 -138zM389 1329l84 172l461 -205l-55 -112z" />
<glyph unicode="&#xf3;" horiz-adv-x="1122" d="M80 522q37 249 192 403t373 154q220 0 326.5 -154.5t70.5 -400.5q-36 -243 -188 -393.5t-373 -150.5q-222 0 -328.5 149.5t-72.5 392.5zM316 394q6 -66 25.5 -116.5t63.5 -80t107 -29.5q122 0 194.5 102.5t94.5 261.5q14 73 8.5 138.5t-25 114.5t-62.5 77.5t-106 28.5 t-115 -28.5t-87 -79t-58 -113.5t-34 -138q-12 -72 -6 -138zM406 1296l520 205l30 -172l-530 -145z" />
<glyph unicode="&#xf4;" horiz-adv-x="1122" d="M80 522q37 249 192 403t373 154q220 0 326.5 -154.5t70.5 -400.5q-36 -243 -188 -393.5t-373 -150.5q-222 0 -328.5 149.5t-72.5 392.5zM316 394q6 -66 25.5 -116.5t63.5 -80t107 -29.5q122 0 194.5 102.5t94.5 261.5q14 73 8.5 138.5t-25 114.5t-62.5 77.5t-106 28.5 t-115 -28.5t-87 -79t-58 -113.5t-34 -138q-12 -72 -6 -138zM328 1235l293 256h170l210 -256h-204l-109 145l-168 -145h-192z" />
<glyph unicode="&#xf5;" horiz-adv-x="1122" d="M80 522q37 249 192 403t373 154q220 0 326.5 -154.5t70.5 -400.5q-36 -243 -188 -393.5t-373 -150.5q-222 0 -328.5 149.5t-72.5 392.5zM316 394q6 -66 25.5 -116.5t63.5 -80t107 -29.5q122 0 194.5 102.5t94.5 261.5q14 73 8.5 138.5t-25 114.5t-62.5 77.5t-106 28.5 t-115 -28.5t-87 -79t-58 -113.5t-34 -138q-12 -72 -6 -138zM373 1393q47 42 91 64t101 22q54 0 140.5 -30t128.5 -30q72 0 161 64l15 -140q-87 -67 -199 -67q-55 0 -134 27.5t-124 27.5q-46 0 -80 -14.5t-78 -46.5z" />
<glyph unicode="&#xf6;" horiz-adv-x="1122" d="M80 522q37 249 192 403t373 154q220 0 326.5 -154.5t70.5 -400.5q-36 -243 -188 -393.5t-373 -150.5q-222 0 -328.5 149.5t-72.5 392.5zM316 394q6 -66 25.5 -116.5t63.5 -80t107 -29.5q122 0 194.5 102.5t94.5 261.5q14 73 8.5 138.5t-25 114.5t-62.5 77.5t-106 28.5 t-115 -28.5t-87 -79t-58 -113.5t-34 -138q-12 -72 -6 -138zM346 1247l35 236h254l-35 -236h-254zM733 1247l35 236h254l-35 -236h-254z" />
<glyph unicode="&#xf7;" horiz-adv-x="1140" d="M139 651l27 187h897l-27 -187h-897zM391 227l39 269h270l-38 -269h-271zM504 995l39 269h272l-41 -269h-270z" />
<glyph unicode="&#xf8;" horiz-adv-x="1124" d="M-16 80l108 104q-66 138 -39 338q37 249 192 403t373 154q187 0 293 -112l109 102l88 -94l-125 -119q60 -139 33 -332q-37 -243 -188.5 -393.5t-372.5 -150.5q-176 0 -285 98l-96 -92zM291 373l454 434q-49 84 -155 84q-63 0 -115 -28.5t-87.5 -79t-58.5 -113.5t-34 -138 q-13 -88 -4 -159zM338 238q50 -70 147 -70q122 0 194.5 102.5t94.5 261.5q11 66 8 132z" />
<glyph unicode="&#xf9;" horiz-adv-x="1179" d="M113 334l106 727h246l-103 -699q-14 -98 38 -147t135 -49q89 0 155.5 54t79.5 151l102 690h246l-157 -1061h-189l2 207q-42 -117 -136 -172t-198 -55q-52 1 -102 13.5t-95.5 40.5t-78 68.5t-47 100t-4.5 131.5zM416 1329l84 172l461 -205l-56 -112z" />
<glyph unicode="&#xfa;" horiz-adv-x="1179" d="M113 334l106 727h246l-103 -699q-14 -98 38 -147t135 -49q89 0 155.5 54t79.5 151l102 690h246l-157 -1061h-189l2 207q-42 -117 -136 -172t-198 -55q-52 1 -102 13.5t-95.5 40.5t-78 68.5t-47 100t-4.5 131.5zM430 1296l520 205l31 -172l-530 -145z" />
<glyph unicode="&#xfb;" horiz-adv-x="1179" d="M113 334l106 727h246l-103 -699q-14 -98 38 -147t135 -49q89 0 155.5 54t79.5 151l102 690h246l-157 -1061h-189l2 207q-42 -117 -136 -172t-198 -55q-52 1 -102 13.5t-95.5 40.5t-78 68.5t-47 100t-4.5 131.5zM354 1235l293 256h170l211 -256h-205l-108 145l-168 -145 h-193z" />
<glyph unicode="&#xfc;" horiz-adv-x="1179" d="M113 334l106 727h246l-103 -699q-14 -98 38 -147t135 -49q89 0 155.5 54t79.5 151l102 690h246l-157 -1061h-189l2 207q-42 -117 -136 -172t-198 -55q-52 1 -102 13.5t-95.5 40.5t-78 68.5t-47 100t-4.5 131.5zM373 1247l35 236h254l-35 -236h-254zM760 1247l35 236h254 l-35 -236h-254z" />
<glyph unicode="&#xfd;" horiz-adv-x="1093" d="M-29 -307l25 160l102 -3q47 -2 84.5 5t59.5 17.5t40 28.5t25 29.5t15 28.5l36 76l-245 1024h243l158 -748l375 748h239l-577 -1098q-93 -170 -189 -234.5t-219 -64.5q-58 0 -101 8t-57 16zM412 1296l520 205l31 -172l-531 -145z" />
<glyph unicode="&#xfe;" horiz-adv-x="1191" d="M25 -330l264 1811h246l-82 -561q34 33 59.5 54t68.5 49t95.5 42t111.5 14q179 0 271.5 -137.5t54.5 -400.5q-40 -272 -176.5 -416.5t-325.5 -144.5q-156 0 -250 102q-17 17 -23 15t-9 -27l-60 -400h-245zM356 256q81 -113 195 -113q119 0 202 99t113 301 q28 193 -27 282.5t-169 89.5q-91 0 -163 -59.5t-83 -130.5z" />
<glyph unicode="&#xff;" horiz-adv-x="1093" d="M-29 -307l25 160l102 -3q47 -2 84.5 5t59.5 17.5t40 28.5t25 29.5t15 28.5l36 76l-245 1024h243l158 -748l375 748h239l-577 -1098q-93 -170 -189 -234.5t-219 -64.5q-58 0 -101 8t-57 16zM352 1247l35 236h254l-35 -236h-254zM739 1247l35 236h254l-35 -236h-254z" />
<glyph unicode="&#x152;" horiz-adv-x="2220" d="M145 735q52 360 258.5 563t518.5 203q236 0 331 -153l86 133h871l-33 -211h-692l-60 -420h484l-31 -207h-483l-64 -432h717l-33 -211h-905l-35 131q-145 -151 -389 -151q-307 0 -451 200t-90 555zM438 733q-42 -284 23.5 -416.5t243.5 -132.5q177 0 277.5 131t141.5 418 q44 290 -20 427.5t-238 137.5q-176 0 -281.5 -137.5t-146.5 -427.5z" />
<glyph unicode="&#x153;" horiz-adv-x="1896" d="M80 522q36 248 201 402.5t385 154.5q231 0 335 -182q9 -12 17 -12t20 12q71 87 169 134.5t206 47.5q221 0 329.5 -160t67.5 -438h-733q-21 -142 48 -233.5t188 -91.5q161 0 301 161l145 -73q-111 -144 -227.5 -204t-274.5 -60q-227 0 -335 176q-14 20 -35 -4 q-158 -172 -383 -172t-341.5 150t-82.5 392zM332 528q-27 -180 25.5 -278t172.5 -98q123 0 203.5 97.5t106.5 278.5q26 182 -26.5 281.5t-172.5 99.5q-121 0 -202 -99.5t-107 -281.5zM1106 627l485 -2q16 116 -35 204.5t-157 88.5q-110 0 -193 -80t-100 -211z" />
<glyph unicode="&#x178;" horiz-adv-x="1253" d="M147 1481h267l254 -637l436 637h266l-612 -854l-92 -627h-244l90 627zM455 1671l34 236h254l-34 -236h-254zM842 1671l35 236h253l-34 -236h-254z" />
<glyph unicode="&#x2c6;" horiz-adv-x="702" d="M113 1235l293 256h169l211 -256h-204l-109 145l-168 -145h-192z" />
<glyph unicode="&#x2dc;" horiz-adv-x="763" d="M178 1393q47 42 91 64t102 22q54 0 140 -30t128 -30q73 0 162 64l14 -140q-87 -67 -199 -67q-54 0 -133 27.5t-125 27.5t-79.5 -14.5t-77.5 -46.5z" />
<glyph unicode="&#x2000;" horiz-adv-x="1011" />
<glyph unicode="&#x2001;" horiz-adv-x="2023" />
<glyph unicode="&#x2002;" horiz-adv-x="1011" />
<glyph unicode="&#x2003;" horiz-adv-x="2023" />
<glyph unicode="&#x2004;" horiz-adv-x="674" />
<glyph unicode="&#x2005;" horiz-adv-x="505" />
<glyph unicode="&#x2006;" horiz-adv-x="337" />
<glyph unicode="&#x2007;" horiz-adv-x="337" />
<glyph unicode="&#x2008;" horiz-adv-x="252" />
<glyph unicode="&#x2009;" horiz-adv-x="404" />
<glyph unicode="&#x200a;" horiz-adv-x="112" />
<glyph unicode="&#x2010;" horiz-adv-x="778" d="M109 434l26 187h522l-26 -187h-522z" />
<glyph unicode="&#x2011;" horiz-adv-x="778" d="M109 434l26 187h522l-26 -187h-522z" />
<glyph unicode="&#x2012;" horiz-adv-x="778" d="M109 434l26 187h522l-26 -187h-522z" />
<glyph unicode="&#x2013;" horiz-adv-x="1153" d="M106 418l29 186h897l-28 -186h-898z" />
<glyph unicode="&#x2014;" horiz-adv-x="1773" d="M106 418l29 186h1516l-29 -186h-1516z" />
<glyph unicode="&#x2018;" horiz-adv-x="540" d="M121 1010l41 227l231 307h96l-153 -268l90 -6l-45 -260h-260z" />
<glyph unicode="&#x2019;" horiz-adv-x="481" d="M170 946l139 268l-96 9l29 258h272l-27 -228l-217 -307h-100z" />
<glyph unicode="&#x201a;" horiz-adv-x="546" d="M-20 -270l155 266l-98 8l39 260h282l-32 -229l-242 -305h-104z" />
<glyph unicode="&#x201c;" horiz-adv-x="919" d="M299 946l25 230l219 305h100l-92 -174l125 174h100l-139 -267l94 -8l-29 -260h-403z" />
<glyph unicode="&#x201d;" horiz-adv-x="888" d="M170 946l139 268l-96 9l29 258h272l-27 -228l-217 -307h-100zM573 946l144 268l-96 9l26 258h273l-25 -228l-219 -307h-103z" />
<glyph unicode="&#x201e;" horiz-adv-x="964" d="M-20 -270l155 266l-98 8l39 260h282l-32 -229l-242 -305h-104zM399 -270l156 266l-98 8l39 260h280l-33 -229l-241 -305h-103z" />
<glyph unicode="&#x2022;" horiz-adv-x="692" d="M139 754q0 95 67.5 163t162.5 68q96 0 163.5 -67.5t67.5 -163.5t-67.5 -164t-163.5 -68q-95 0 -162.5 68.5t-67.5 163.5z" />
<glyph unicode="&#x2026;" horiz-adv-x="1699" d="M66 0l43 287h274l-43 -287h-274zM668 0l43 287h274l-43 -287h-274zM1268 0l45 287h274l-43 -287h-276z" />
<glyph unicode="&#x202f;" horiz-adv-x="404" />
<glyph unicode="&#x2039;" horiz-adv-x="591" d="M92 514l301 393h133l-233 -393l119 -377h-133z" />
<glyph unicode="&#x203a;" horiz-adv-x="591" d="M55 137l230 377l-117 393h133l184 -393l-299 -377h-131z" />
<glyph unicode="&#x205f;" horiz-adv-x="505" />
<glyph unicode="&#x20ac;" horiz-adv-x="1245" d="M-12 506l22 143h160q2 33 10 99q2 15 17 88h-160l20 143h179q86 246 259 384t396 138q123 0 222.5 -47.5t160.5 -132.5l-189 -139q-46 55 -92 85.5t-110 30.5q-254 0 -365 -319h352l-20 -141h-369q-13 -65 -16 -93q-8 -67 -10 -96h366l-20 -143h-348q12 -155 85 -233 t197 -78q68 0 139 34t123 82l111 -147q-89 -83 -202.5 -133.5t-231.5 -50.5q-223 0 -356 140t-148 386h-182z" />
<glyph unicode="&#x2122;" horiz-adv-x="1888" d="M66 784l20 142h694l-20 -142h-266l-115 -784h-152l113 784h-274zM809 0l135 926h221l125 -707l334 707h217l-133 -926h-156l105 725l-336 -725h-127l-125 721l-104 -721h-156z" />
<glyph unicode="&#x25fc;" horiz-adv-x="1054" d="M0 0v1055h1055v-1055h-1055z" />
</font>
</defs>
</svg>
